<svg width="17" height="20" viewBox="0 0 17 20" fill="none" xmlns="http://www.w3.org/2000/svg">
<path d="M0 0.000200009V16.012H6.354V14.812H1.2V1.2002H7.2382V5.558H11.3538V9.254H12.5538V4.5258L8.1264 0L0 0.000200009ZM8.4382 2.0362L10.7124 4.358H8.4382V2.0362Z" fill="#F55F44"/>
<path d="M2.43213 7.95261H9.64233V9.15261H2.43213V7.95261Z" fill="#F55F44"/>
<path d="M2.43213 10.5526H6.04233V11.7526H2.43213V10.5526Z" fill="#F55F44"/>
<path d="M16.0764 17.5424V12.0002C16.0764 10.3721 12.2304 10.326 11.792 10.326C11.3537 10.326 7.51001 10.376 7.51001 12.0002V17.5798C7.51079 17.6407 7.52095 17.7009 7.54048 17.7579C7.88188 19.1603 11.3765 19.2001 11.7945 19.2001C12.2125 19.2001 15.9945 19.1525 16.0741 17.5743C16.0741 17.5657 16.0764 17.5564 16.0764 17.5423L16.0764 17.5424ZM14.8764 13.7424C14.6381 13.9619 13.5381 14.3205 11.7944 14.3205C10.0499 14.3205 8.95841 13.9619 8.71001 13.7502V13.2346C9.87797 13.6604 11.51 13.6783 11.7944 13.6783C12.0788 13.6783 13.71 13.658 14.8788 13.2346L14.8764 13.7424ZM8.71001 15.076C9.87797 15.5018 11.51 15.5198 11.7944 15.5198C12.0788 15.5198 13.71 15.4995 14.8788 15.076L14.878 15.6002C14.6304 15.8119 13.5382 16.1705 11.7936 16.1705C10.0499 16.1705 8.95843 15.8002 8.71003 15.6002L8.71001 15.076ZM11.7944 11.53C13.2944 11.53 14.3124 11.7956 14.7264 12.0042C14.3124 12.2042 13.2944 12.4784 11.7944 12.4784C10.2944 12.4784 9.27401 12.2144 8.86241 12.0003C9.27413 11.8003 10.2921 11.53 11.7944 11.53ZM8.71001 17.4346V16.9182C9.87797 17.344 11.51 17.362 11.7944 17.362C12.0788 17.362 13.71 17.3417 14.8788 16.9182V17.4338C14.628 17.6463 13.5382 18.0002 11.7944 18.0002C10.0499 18.0002 8.95841 17.6463 8.71001 17.4346Z" fill="#F55F44"/>
</svg>
